<?xml version="1.0" standalone="no"?>
<!DOCTYPE svg PUBLIC "-//W3C//DTD SVG 20010904//EN"
 "http://www.w3.org/TR/2001/REC-SVG-20010904/DTD/svg10.dtd">
<svg version="1.0" xmlns="http://www.w3.org/2000/svg"
 width="1361.000000pt" height="330.000000pt" viewBox="0 0 1361.000000 330.000000"
 preserveAspectRatio="xMidYMid meet">
<metadata>
Created by potrace 1.13, written by Peter Selinger 2001-2015
</metadata>
<g transform="translate(0.000000,330.000000) scale(0.100000,-0.100000)"
fill="#394156" stroke="none">
<path d="M10930 2025 l0 -1275 245 0 245 0 -2 1273 -3 1272 -242 3 -243 2 0
-1275z"/>
<path d="M9780 2850 l0 -250 -155 0 -155 0 0 -215 0 -215 155 0 155 0 0 -527
c0 -582 2 -603 62 -715 54 -101 147 -170 275 -203 176 -46 422 -17 544 65 l46
30 -50 182 c-28 101 -52 184 -53 186 -1 2 -20 -7 -44 -19 -26 -14 -67 -24
-108 -26 -58 -4 -72 -2 -102 19 -19 13 -45 43 -57 68 -23 44 -23 48 -23 492
l0 448 185 0 185 0 0 215 0 215 -185 0 -185 0 0 250 0 250 -245 0 -245 0 0
-250z"/>
<path d="M750 2621 c-178 -39 -317 -112 -451 -239 -137 -130 -219 -271 -270
-469 -20 -75 -23 -112 -23 -248 1 -140 4 -172 28 -260 45 -173 122 -309 237
-424 203 -204 514 -305 836 -272 247 25 447 97 593 212 l50 40 -107 157 c-58
86 -107 158 -109 160 -1 2 -24 -13 -51 -32 -123 -88 -281 -137 -443 -137 -170
-1 -291 43 -391 141 -59 58 -112 149 -128 219 l-9 41 684 0 684 0 0 118 c0
299 -90 554 -258 733 -120 128 -228 194 -398 245 -122 36 -346 43 -474 15z
m391 -410 c121 -46 213 -141 249 -258 35 -115 86 -103 -431 -103 l-452 0 7 43
c10 64 60 161 110 215 52 55 118 95 197 117 77 22 245 14 320 -14z"/>
<path d="M4962 2621 c-115 -29 -228 -90 -316 -172 l-75 -70 -3 108 -3 108
-242 3 -243 2 0 -1275 0 -1275 245 0 245 0 0 461 0 462 74 -71 c201 -191 470
-247 755 -157 206 66 378 231 467 448 68 168 79 236 78 487 0 212 -2 231 -27
325 -109 404 -397 637 -784 634 -58 0 -128 -8 -171 -18z m163 -436 c193 -54
325 -265 325 -517 -1 -309 -194 -528 -465 -528 -124 0 -271 61 -364 150 l-51
49 0 334 0 334 35 36 c135 139 335 193 520 142z"/>
<path d="M6900 2621 c-178 -39 -317 -112 -451 -239 -137 -130 -219 -271 -270
-469 -20 -75 -23 -112 -23 -248 1 -140 4 -172 28 -260 45 -173 122 -309 237
-424 203 -204 514 -305 836 -272 247 25 447 97 593 212 l50 40 -107 157 c-58
86 -107 158 -109 160 -1 2 -24 -13 -51 -32 -123 -88 -281 -137 -443 -137 -170
-1 -291 43 -391 141 -59 58 -112 149 -128 219 l-9 41 684 0 684 0 0 118 c0
299 -90 554 -258 733 -120 128 -228 194 -398 245 -122 36 -346 43 -474 15z
m391 -410 c121 -46 213 -141 249 -258 35 -115 86 -103 -431 -103 l-452 0 7 43
c10 64 60 161 110 215 52 55 118 95 197 117 77 22 245 14 320 -14z"/>
<path d="M9255 2620 c-140 -36 -258 -103 -362 -203 l-62 -60 -3 119 -3 119
-242 3 -243 2 0 -925 0 -925 245 0 245 0 0 614 0 614 51 46 c58 52 166 108
254 132 39 10 100 16 173 16 l112 -1 0 235 0 234 -47 -1 c-27 0 -79 -8 -118
-19z"/>
<path d="M1990 2594 c0 -3 134 -199 298 -436 163 -237 301 -439 305 -448 7
-13 -70 -130 -317 -486 l-325 -469 262 -3 c144 -1 267 0 273 2 6 2 102 139
215 305 112 165 208 299 213 298 5 -2 100 -138 211 -302 l202 -300 271 -3
c150 -1 272 0 272 3 0 4 -428 625 -631 916 l-18 26 304 446 c168 244 305 447
305 451 0 3 -121 6 -270 6 l-270 0 -187 -280 c-102 -154 -189 -280 -192 -280
-3 1 -91 127 -194 280 l-188 280 -269 0 c-149 0 -270 -3 -270 -6z"/>
<path d="M11600 2592 c0 -5 167 -424 370 -931 204 -508 370 -928 370 -935 -1
-28 -83 -193 -112 -223 -58 -60 -146 -73 -338 -51 -24 3 -25 3 -58 -206 -27
-170 -31 -210 -20 -217 23 -15 120 -24 243 -23 311 1 522 119 643 359 28 55
889 2177 900 2218 4 16 -13 17 -255 17 l-260 0 -238 -630 c-131 -347 -241
-633 -245 -635 -4 -2 -114 281 -245 630 l-237 635 -259 0 c-143 0 -259 -4
-259 -8z"/>
</g>
</svg>
