<svg xmlns="http://www.w3.org/2000/svg" width="1080.127" height="913.032" viewBox="0 0 1080.127 913.032">
  <defs>
    <style>
      .cls-1 {
        fill: #e6614f;
        fill-rule: evenodd;
      }
    </style>
  </defs>
  <path id="Rounded_Rectangle_1_copy_2" data-name="Rounded Rectangle 1 copy 2" class="cls-1" d="M921.752,606.633l43.6,44.125c37.7,38.237,37.732,100.449,0,138.7a95.122,95.122,0,0,1-135.7,0L669.373,627.042c-33.2-33.687-82.1-96.979-36.568-143.125a54.185,54.185,0,0,0-.268-76.379,53.521,53.521,0,0,0-76,.259c-77.426,78.456-63.132,194.369,36.538,295.337l160.3,162.4a202.078,202.078,0,0,0,288.23,0,207.9,207.9,0,0,0-.03-290.924l-43.594-44.139a53.46,53.46,0,0,0-75.966-.232A54.228,54.228,0,0,0,921.752,606.633ZM649.782,464.6,177.045,312.353C146.919,427.119,201.591,531.41,307.087,560.269l74.378,20.356A54.013,54.013,0,0,0,409.63,476.337L335.3,456c-54.69-14.936-66.653-69.055-54.307-116.05a95.342,95.342,0,0,1,117.5-68.243l234.262,64.1c107.127,29.3,93.816,79.948,88.14,101.556a53.76,53.76,0,1,0,103.915,27.6c13-49.568,7.787-94.449-13.868-132.154-26.494-46.128-77.6-81.459-149.994-101.245l-234.262-64.1A202.72,202.72,0,0,0,177.045,312.353ZM767.459,19.325l19.713-5.31a30.6,30.6,0,0,1,37.493,21.76L864.282,184.4a30.791,30.791,0,0,1-21.646,37.691l-19.714,5.31a30.6,30.6,0,0,1-37.494-21.761L745.811,57.015A30.792,30.792,0,0,1,767.459,19.325ZM1077.84,65.047l17.29,10.9a30.865,30.865,0,0,1,9.66,42.423l-81.34,130.346a30.515,30.515,0,0,1-42.2,9.716l-17.289-10.9a30.871,30.871,0,0,1-9.666-42.423L1035.64,74.763A30.518,30.518,0,0,1,1077.84,65.047Zm171.1,291.6v20.516a30.689,30.689,0,0,1-30.61,30.774H1065.26a30.689,30.689,0,0,1-30.61-30.774V356.643a30.689,30.689,0,0,1,30.61-30.774h153.07A30.689,30.689,0,0,1,1248.94,356.643Z" transform="translate(-168.813 -12.938)"/>
</svg>
