<?xml version="1.0" standalone="no"?>
<!DOCTYPE svg PUBLIC "-//W3C//DTD SVG 20010904//EN"
 "http://www.w3.org/TR/2001/REC-SVG-20010904/DTD/svg10.dtd">
<svg version="1.0" xmlns="http://www.w3.org/2000/svg"
 width="1500.000000pt" height="1500.000000pt" viewBox="0 0 1500.000000 1500.000000"
 preserveAspectRatio="xMidYMid meet">
<metadata>
Created by potrace 1.14, written by Peter Selinger 2001-2017
</metadata>
<g transform="translate(0.000000,1500.000000) scale(0.100000,-0.100000)"
fill="#000000" stroke="none">
<path d="M7175 14994 c-460 -27 -760 -64 -1145 -140 -2142 -424 -4004 -1779
-5079 -3697 -803 -1433 -1109 -3098 -871 -4747 141 -982 493 -1957 1012 -2808
674 -1104 1624 -2019 2751 -2651 2261 -1267 5053 -1267 7314 0 1314 737 2376
1848 3047 3189 72 146 162 336 199 423 1036 2450 706 5263 -866 7387 -840
1135 -1975 2009 -3275 2524 -688 273 -1391 436 -2154 501 -170 15 -793 27
-933 19z m900 -1019 c1230 -115 2359 -548 3323 -1274 972 -733 1703 -1691
2147 -2811 233 -589 367 -1155 432 -1825 24 -253 24 -877 0 -1130 -70 -723
-229 -1357 -497 -1985 -450 -1054 -1157 -1952 -2085 -2653 -862 -651 -1901
-1081 -2970 -1231 -353 -49 -513 -60 -920 -60 -409 0 -583 11 -930 60 -1698
239 -3227 1147 -4278 2539 -616 817 -1039 1802 -1206 2810 -67 402 -86 644
-86 1085 0 441 19 683 86 1085 306 1847 1428 3497 3044 4477 926 561 1948 872
3060 932 155 8 718 -4 880 -19z" fill="#e7e7e7" />
<path d="M5500 10004 c-180 -38 -357 -177 -439 -344 -94 -192 -94 -387 0 -580
l41 -85 729 -730 729 -730 -656 -655 c-361 -360 -690 -693 -731 -740 -196
-220 -236 -487 -112 -740 59 -119 170 -230 289 -289 192 -94 387 -94 580 0
l85 41 733 732 732 731 733 -731 732 -732 85 -41 c193 -94 388 -94 580 0 119
59 230 170 289 289 94 192 94 387 0 580 l-41 85 -732 733 -731 732 731 733
732 732 41 85 c94 193 94 388 0 580 -59 119 -170 230 -289 289 -253 124 -520
84 -740 -112 -47 -41 -380 -370 -740 -731 l-655 -656 -730 729 -730 729 -85
41 c-140 68 -285 87 -430 55z" fill="#9c9c9e" />
</g>
</svg>
