<?xml version="1.0" standalone="no"?>
<!DOCTYPE svg PUBLIC "-//W3C//DTD SVG 1.1//EN" "http://www.w3.org/Graphics/SVG/1.1/DTD/svg11.dtd">
<svg xmlns="http://www.w3.org/2000/svg">
<metadata>Generated by Fontastic.me</metadata>
<defs>
<font id="expertly" horiz-adv-x="512">
<font-face font-family="expertly" units-per-em="512" ascent="480" descent="-32"/>
<missing-glyph horiz-adv-x="512" />

<glyph glyph-name="guide" unicode="&#57344;" d="M247 479c-30-7-212-49-215-50-20-7-33-27-32-48 1-16 9-29 22-38 7-4 9-4 35-11l22-5 1-71c0-66 0-73 2-77 7-27 34-46 78-57 53-13 139-13 191 0 45 11 71 30 79 57 2 4 2 11 2 77l1 71 22 5c26 7 28 7 35 11 13 9 20 22 22 38 1 20-11 40-30 47-2 1-52 13-111 26-111 26-115 27-124 25z m116-56c58-13 107-24 109-25 6-3 9-12 7-19-1-3-5-8-8-9-3-2-211-50-215-50-4 0-213 48-216 50-2 1-6 6-7 9-2 7 1 16 7 19 3 1 211 50 215 50 2 0 50-11 108-25z m-182-119c61-14 68-16 75-16 7 0 14 2 75 16 37 9 68 16 69 16 0 0 0-29 0-65 0-72 0-67-5-74-6-7-21-16-36-22-56-20-150-20-206 0-15 6-30 15-36 22-6 7-5 2-5 74 0 36 0 65 0 65 1 0 32-7 69-16z m292 14c-4-2-6-3-7-7-2-3-2-6-2-80l1-77 2-3c6-8 16-9 23-3 6 5 6-1 6 81 0 50 0 75-1 78-1 8-7 13-15 13-3 0-6-1-7-2z m4-190c-2-1-7-4-10-8-3-3-9-16-12-24-3-8-6-21-7-28-1-14 6-27 19-33 4-2 6-3 13-3 7 0 8 1 13 3 7 3 13 9 16 16 2 5 2 6 2 14 0 21-13 53-24 61-3 2-7 2-10 2z"/>
<glyph glyph-name="lock" unicode="&#57346;" d="M51 0l0 273 34 0 0 67c0 95 77 172 171 172 94 0 170-77 170-172l0-67 35 0 0-273z m273 68l-34 69c16 9 34 17 34 34 0 28-31 34-68 34-37 0-68-6-68-34 0-17 18-25 34-34l-34-69z m34 274c0 56-45 102-102 102-56 0-102-46-102-102l0-69 204 0z"/>
<glyph glyph-name="drag-n-drop" unicode="&#57347;" d="M330 85l-8 4 8-4-74-85-79 85z m-17 341l17 0-74 86-79-86z m-57-72c52 0 94-44 94-98 0-54-42-98-94-98-52 0-94 44-94 98 0 54 42 98 94 98z m0-22c-40 0-73-34-73-76 0-42 33-76 73-76 40 0 73 34 73 76 0 42-33 76-73 76z"/>
<glyph glyph-name="edit" unicode="&#57350;" d="M461 375l-86 85 40 40c7 8 18 12 28 12 11 0 21-4 29-12l28-28c16-16 16-42 0-58z m-26-26l-249-250c-1 0-2-1-2-1l-27-27-28 28-6 7-51 50 67 68 210 210z m-435-349l45 129 84-85z"/>
<glyph glyph-name="mail-alt" unicode="&#57351;" d="M461 396l0-280-410 0 0 280 410 0m51 51l-512 0 0-382 512 0z m-256-255c-6 0-11 2-16 6l-128 102c-7 6-11 15-9 24 1 9 7 16 16 20 8 3 18 1 25-4l112-90 112 90c7 5 17 7 25 4 9-4 15-11 16-20 2-9-2-18-9-24l-128-102c-5-4-10-6-16-6z"/>
<glyph glyph-name="eye" unicode="&#57352;" d="M256 62c-224 0-256 194-256 194 0 0 64 194 256 194 192 0 256-194 256-194 0 0-32-194-256-194z m0 323c-53 0-128-65-128-129 0-64 75-129 128-129 53 0 128 65 128 129 0 64-75 129-128 129z m0-194c-35 0-64 23-64 65 0 42 29 64 64 64 35 0 64-22 64-64 0-42-29-65-64-65z"/>
<glyph glyph-name="menu" unicode="&#57353;" d="M32 496c-18 0-32-14-32-32l0-32c0-18 14-32 32-32l448 0c18 0 32 14 32 32l0 32c0 18-14 32-32 32z m0-192c-18 0-32-14-32-32l0-32c0-18 14-32 32-32l448 0c18 0 32 14 32 32l0 32c0 18-14 32-32 32z m0-192c-18 0-32-14-32-32l0-32c0-18 14-32 32-32l448 0c18 0 32 14 32 32l0 32c0 18-14 32-32 32z"/>
<glyph glyph-name="nudge" unicode="&#57354;" d="M271 105l0 30 60 0c20 0 30 15 30 31 0 14-11 30-30 30l-60 0 0 30 121 0c22 0 30 15 30 30-1 15-8 30-30 30l-121 0 0 30 211 0c16 0 30 15 30 30 0 15-17 31-30 31l-301 0 0 30 90 0c20 0 30 9 30 30 0 21-10 30-30 30l-120 0c-80 0-151-65-151-151l0-120c0-86 41-151 120-151l151 0c25 0 31 15 30 30 0 15-6 30-30 30z"/>
<glyph glyph-name="filters" unicode="&#57359;" d="M0 503l512 0 0-73-512 0z m0-109l219-182 0-183 39-20 35 20 0 183 103 80 116 102z"/>
<glyph glyph-name="plus-icon" unicode="&#57360;" d="M213 405l0-106-213 0 0-86 213 0 0-213 86 0 0 213 213 0 0 86-213 0 0 213-86 0z"/>
<glyph glyph-name="repeat" unicode="&#57361;" d="M436 318l-84 0 54 52c-35 43-89 71-150 71-95 0-174-67-189-154l-65 0c16 122 123 216 254 216 79 0 149-35 196-89l60 58 0-154z m-361-123l85 0-55-53c35-43 89-71 151-71 95 0 173 67 189 154l65 0c-16-122-123-216-254-216-79 0-150 35-197 89l-59-57 0 154z"/>
<glyph glyph-name="history" unicode="&#57364;" d="M256 509c-54 0-106-17-150-49l-52 52-35-176 178 34-47 46c31 21 68 32 106 32 107 0 195-87 195-193 0-107-88-194-195-194-107 0-195 87-195 194 0 14 2 29 6 45l-62 5c-3-17-5-34-5-50 0-141 115-255 256-255 141 0 256 114 256 255 0 140-115 254-256 254z m-31-122l0-183 164 0 0 61-102 0 0 122z"/>
<glyph glyph-name="setting" unicode="&#57365;" d="M511 284c-1 8-10 13-17 13-23 0-44 14-53 35-9 22-3 47 14 63 6 5 7 14 2 20-12 15-26 29-41 41-6 4-14 4-19-2-15-17-43-23-64-14-22 9-36 31-35 55 1 8-5 14-12 15-19 3-39 3-58 0-7 0-13-7-12-14 0-24-14-46-35-55-21-8-49-2-64 15-5 5-13 6-19 1-16-12-29-26-42-41-4-6-4-14 2-19 18-16 23-42 14-64-9-21-30-35-55-35-9 1-14-5-15-12-3-20-3-39 0-58 0-8 9-13 16-13 23 0 44-13 53-35 9-22 3-47-14-64-6-5-6-13-2-19 12-15 26-29 41-41 6-4 14-4 19 2 16 17 43 23 64 14 22-9 36-31 35-55-1-8 5-15 12-15 19-8 38-14 58-17 7 1 13 7 13 15-1 24 13 45 35 54 21 9 48 3 63-14 5-6 13-6 19-2 16 12 30 26 42 41 4 6 4 15-2 20-18 16-23 42-14 64 9 20 30 34 52 34l3 0c8 0 14 5 15 13 4 25 4 50 1 74z m-255-114c-47 0-85 38-85 85 0 47 38 86 85 86 48 0 86-39 86-86 0-47-38-85-86-85z"/>
<glyph glyph-name="ico-check" unicode="&#57366;" d="M163 140l-122 125-41-42 163-166 349 356-41 42z"/>
<glyph glyph-name="ico-warning" unicode="&#57370;" d="M498 151l-169 304c-14 27-42 44-73 44-31 0-59-17-74-44l-171-309c-15-28-15-61 0-89 15-27 43-43 74-44l342 0c47 0 85 40 85 89 0 17-5 34-14 49z m-206-30c0-20-15-36-36-36-21 0-36 16-36 36l0 1c0 10 3 20 10 26 7 7 16 11 26 11 21 0 36-16 36-37z m1 249l-18-163c-1-12-9-19-19-19-10 0-18 7-19 19l-18 163c-1 13 5 22 17 22l40 0c12 0 18-9 17-22z"/>
<glyph glyph-name="stack-of-square-papers-1" unicode="&#57371;" d="M0 335l256 143 256-143-256-143z m0-79l30 25 226-121 226 122 30-26-256-143z m0-79l30 26 226-122 226 122 30-26-256-143z"/>
<glyph glyph-name="trash-1" unicode="&#57372;" d="M487 424c-2 2-4 3-8 3l-102 0-24 55c-3 9-9 16-18 21-8 6-17 9-26 9l-107 0c-8 0-17-3-26-9-9-5-15-12-18-21l-23-55-103 0c-3 0-6-1-8-3-2-2-3-5-3-8l0-21c0-3 1-6 3-8 2-2 5-3 8-3l32 0 0-317c0-18 5-34 16-47 10-13 23-19 37-19l277 0c15 0 27 6 38 20 10 13 16 29 16 47l0 316 31 0c4 0 6 1 8 3 2 2 3 5 3 8l0 21c0 3-1 6-3 8z m-290 42c2 2 4 3 6 3l106 0c2 0 4-1 5-3l16-39-149 0z m208-398c0-4-1-9-2-13-2-4-4-7-5-9-2-2-3-3-4-3l-277 0c0 0-2 1-3 3-2 2-4 5-5 9-2 4-2 9-2 13l0 316 298 0z m-245 39l21 0c3 0 6 1 8 3 2 2 3 5 3 8l0 192c0 3-1 5-3 7-2 2-5 3-8 3l-21 0c-3 0-6-1-8-3-2-2-3-4-3-7l0-192c0-3 1-6 3-8 2-2 5-3 8-3z m85 0l21 0c3 0 6 1 8 3 2 2 3 5 3 8l0 192c0 3-1 5-3 7-2 2-5 3-8 3l-21 0c-3 0-6-1-8-3-2-2-3-4-3-7l0-192c0-3 1-6 3-8 2-2 5-3 8-3z m85 0l22 0c3 0 5 1 7 3 2 2 3 5 3 8l0 192c0 3-1 5-3 7-2 2-4 3-7 3l-22 0c-3 0-5-1-7-3-2-2-3-4-3-7l0-192c0-3 1-6 3-8 2-2 4-3 7-3z"/>
<glyph glyph-name="stack-of-square-papers-1-1" unicode="&#57373;" d="M8 334l243-104c1 0 3-1 5-1 2 0 4 1 5 1l243 104c5 2 8 7 8 13 0 5-4 10-9 12l-242 92c-3 2-7 2-10 0l-242-92c-5-2-9-7-9-12 0-6 3-11 8-13z m248 90l206-78-206-88-206 88z m-248-149l248-106 248 106c7 3 10 11 7 18-3 7-11 10-18 7l-237-101-237 101c-7 3-15 0-18-7-3-7 0-15 7-18z m0-55l248-106 248 106c7 3 10 11 7 18-3 7-11 10-18 7l-237-101-237 101c-7 3-15 0-18-7-3-7 0-15 7-18z m0-54l248-106 248 106c7 3 10 11 7 18-3 7-11 10-18 7l-237-102-237 102c-7 3-15 0-18-7-3-7 0-15 7-18z"/>
<glyph glyph-name="user" unicode="&#57374;" d="M256 262c54 0 97 56 97 125 0 69-14 125-97 125-83 0-97-56-97-125 0-69 43-125 97-125z m-183-192c-1 5-1 2 0 0z m366-3c1 1 2 8 0 0z m0 8c-2 121-16 155-130 177 0 0-16-22-53-22-37 0-53 22-53 22-112-21-128-55-130-173 0-9 0-10 0-9 0-2 12-6 0-12 0 0 27-58 183-58 156 0 183 58 183 58 0 4 1 7 0 9 0-1 0 1 0 8z"/>
<glyph glyph-name="copy-1" unicode="&#57376;" d="M427 0l-228 0c-43 0-85 42-85 85l0 228c0 43 42 85 85 85l228 0c43 0 85-42 85-85l0-228c0-43-42-85-85-85z m28 341l-284 0 0-284 284 0z m-114 114l-284 0 0-284 28 0 0-57c-43 0-85 42-85 85l0 228c0 43 42 85 85 85l228 0c43 0 85-42 85-85l-57 0z"/>
<glyph glyph-name="cross2" unicode="&#57377;" d="M60 512c-8-1-16-3-23-7-7-3-12-7-17-13-14-13-21-31-20-49 1-15 5-27 14-39 2-2 27-28 75-76l72-72-72-72c-47-47-73-74-75-76-9-12-13-24-14-39 0-11 2-22 7-32 3-7 7-12 13-17 12-12 27-19 44-20 15-1 30 4 43 14 3 2 24 23 77 75l72 72 73-73c74-74 74-74 82-79 6-3 15-6 23-8 5-1 17-1 24 0 6 1 11 3 17 6 7 3 12 7 17 13 10 9 16 21 19 34 1 7 1 19 0 25-2 11-7 21-14 30-1 1-34 35-74 75l-72 72 73 73c74 74 74 74 79 82 3 6 6 15 8 23 1 5 1 17 0 24-3 15-11 28-23 38-9 8-19 12-31 15-6 1-18 1-24 0-9-2-17-5-25-10-4-3-8-7-66-65-34-34-67-67-74-73l-12-12-74 73c-80 80-76 76-85 81-5 2-12 5-17 6-4 1-16 1-20 1z"/>
<glyph glyph-name="icon-search" unicode="&#57378;" d="M384 320c0 106-86 192-192 192-106 0-192-86-192-192 0-106 86-192 192-192 106 0 192 86 192 192z m-192-144c-79 0-144 65-144 144 0 79 65 144 144 144 79 0 144-65 144-144 0-79-65-144-144-144z m306-94l-118 117c-17-27-40-50-67-67l117-118c19-19 49-19 68 0 19 19 19 49 0 68z"/>
<glyph glyph-name="video" unicode="&#57379;" d="M384 205l128-77 0 256-128-77z m-51-103c17 0 25 9 25 26l0 256c0 17-8 26-25 26l-307 0c-18 0-26-9-26-26l0-256c0-17 8-26 26-26z"/>
<glyph glyph-name="wrench" unicode="&#57380;" d="M326 500c-41-4-78-21-106-48-27-27-44-59-48-96-1-8-1-30 0-37 0-3 0-7 0-9 0-8-3-16-8-23-2-1-33-31-71-67-38-36-70-66-71-68-11-12-18-26-21-43-1-4-1-21 0-26 6-27 23-50 48-62 9-4 17-7 27-9 7-1 19-1 26 0 16 3 31 9 44 19 2 2 34 33 73 69 51 49 71 67 73 69 8 5 17 7 27 6 35-4 68 1 98 16 25 11 46 29 62 50 15 20 25 43 30 68 2 9 2 14 2 25 1 20-1 32-6 39-5 8-12 13-22 14-8 2-18 0-25-6-2-1-13-11-25-23-13-12-24-23-25-24-3-2-8-4-11-5-4-1-11-1-16 0-3 0-8 3-11 5-4 3-32 30-33 32-3 5-5 11-5 17 0 5 2 12 5 16 1 1 12 13 26 26 13 12 24 24 25 25 13 17 5 40-15 47-6 2-14 3-29 3-8 0-16 0-18 0z m-1-47c0 0-4-4-10-9-11-10-15-15-19-21-9-14-13-29-12-46 1-16 8-31 18-43 4-4 31-30 36-34 10-8 22-14 36-17 4-1 6-1 15-1 10 0 12 0 20 2 11 3 22 9 30 15 2 2 7 7 13 12 6 6 10 10 10 10 1 0-2-11-3-16-12-41-46-73-90-83-14-3-30-4-43-2-9 1-13 3-23 8-6 4-8 5-12 4-3-1-6-4-11-8-2-2-38-37-81-77-92-88-84-80-87-82-14-10-32-10-46 0-4 2-9 7-11 11-9 13-9 30 1 43 1 2 27 27 72 70 54 51 71 67 74 71 9 11 15 23 17 38 1 5 1 19 1 23-2 9-2 23 0 34 8 49 47 88 97 97 5 1 8 2 8 1z"/>
<glyph glyph-name="link" unicode="&#57381;" d="M406 188l26-26c22-23 22-59 0-82-11-11-25-17-40-17-15 0-30 6-40 17l-95 96c-19 19-48 56-21 84 8 8 11 19 8 30-3 11-12 20-23 23-11 3-22-1-30-9-46-46-38-114 21-173l95-96c23-22 53-35 85-35 32 0 62 13 85 35 23 24 35 55 35 86 0 31-12 62-35 85l-26 26c-12 13-32 13-45 0-12-12-12-32 0-44z m-367 289c-49-50-52-119-7-165l32-32c13-13 33-13 45 0 13 12 13 32 0 44l-32 33c-23 23-13 55 7 75 10 11 25 17 40 17 15 0 29-6 40-17l101-102c46-46 24-68 15-78-12-12-12-32 0-44 13-13 33-13 45 0 21 21 32 45 32 71 0 31-16 64-47 96l-101 102c-23 22-53 35-85 35-32 0-63-13-85-35z"/>
<glyph glyph-name="dashboard" unicode="&#57382;" d="M242 474c-42-2-82-15-117-36-64-38-108-102-121-175-2-14-3-25-4-40 0-32 5-61 15-91 7-19 17-39 28-56 9-13 21-27 30-36l2-2 36 36-4 4c-28 30-48 71-54 112-1 10-1 13-1 24-1 34 6 66 21 96 8 16 17 29 28 42 5 6 16 17 22 22 32 28 70 44 113 48 9 1 32 1 40 0 12-1 21-2 31-5 42-11 79-35 107-68 46-56 59-133 34-201-9-26-24-50-44-71l-3-3 18-18 18-18 1 1c2 2 11 11 15 16 18 22 33 49 43 76 25 66 20 140-12 203-15 30-35 56-60 78-42 37-96 59-153 62-5 0-23 0-29 0z m100-166c-45-26-54-32-69-45-16-13-33-30-46-46-5-6-10-12-10-13 0 0 36-36 36-36 1 0 14 11 22 18 6 5 19 18 25 24 11 12 20 25 29 38 5 7 51 83 50 83 0 0-17-10-37-23z"/>
<glyph glyph-name="copy" unicode="&#57368;" d="M256 0c-141 0-256 115-256 256 0 141 115 256 256 256 141 0 256-115 256-256 0-141-115-256-256-256z m128 289l-96 0 0 95-64 0 0-95-96 0 0-65 96 0 0-95 64 0 0 95 96 0z"/>
<glyph glyph-name="feedback" unicode="&#57355;" d="M446 311c3-13 5-27 5-40 0-106-88-194-204-212 51-21 107-22 158-2 30-11 63-13 89-13-12 15-22 31-30 48 30 27 48 63 48 103 0 46-26 88-66 116z m-423-223c2-5 8-9 14-9l1 0c17 1 50 13 86 36 19-4 62-10 77-10 113 0 201 80 201 182 0 101-90 183-201 183-111 0-201-82-201-183 0-47 20-92 56-126-8-19-19-38-32-55-4-5-4-12-1-18z m9 199c0 83 76 150 169 150 93 0 169-67 169-150 0-85-73-149-169-149-13 0-63 7-77 10-4 1-9 0-12-2-12-8-25-16-38-22 6 12 11 24 16 37 2 6 0 13-5 18-34 28-53 67-53 108z"/>
<glyph glyph-name="play" unicode="&#57383;" d="M37 28c0 24 3 431 0 447 0 22 21 46 42 34 17-10 354-211 382-228 19-11 19-38 0-49-20-13-358-214-383-228-18-10-41 1-41 24z"/>
<glyph glyph-name="star" unicode="&#57392;" d="M506 300c5 5 7 13 5 21-2 7-9 12-16 13l-149 12c-7 0-13 5-16 11l-59 143c-3 7-9 12-17 12-7-7-14-5-17-12l-56-144c-3-7-9-12-16-12l-148-15c-8 0-14-6-16-13-2-8 19-16 6-21l113-100c6-5 8-12 6-19l-32-152c-2-8 1-16 7-20 6-5 14-5 21-1l126 82c6 4 14 4 20 0l128-79c6-4 14-4 20 1 6 4 9 12 7 20l-35 151c-2 7 1 14 6 19z"/>
<glyph glyph-name="repeat-2" unicode="&#918017;" d="M384 405l-59 0 36 39c12 12 12 30 0 42-11 12-29 12-40 0l-105-111 105-110c5-6 13-9 20-9 8 0 15 3 20 9 12 11 12 30 0 42l-36 39 59 0c39 0 71-41 71-90 0-49-38-90-85-90-16 0-29-13-29-29 0-17 13-30 29-30 78 0 142 67 142 149 0 82-57 149-128 149z m-233-158c-12-11-12-30 0-42l36-39-59 0c-39 0-71 41-71 90 0 49 38 90 85 90 16 0 29 13 29 29 0 17-13 30-29 30-78 0-142-67-142-149 0-82 57-149 128-149l59 0-36-39c-12-12-12-30 0-42 5-6 12-9 20-9 7 0 15 3 20 9l105 111-105 110c-11 12-29 12-40 0z"/>
<glyph glyph-name="clock" unicode="&#57367;" d="M256 512c-141 0-256-115-256-256 0-141 115-256 256-256 141 0 256 115 256 256 0 141-115 256-256 256z m0-458c-111 0-202 91-202 202 0 111 91 202 202 202 111 0 202-91 202-202 0-111-91-202-202-202z m-36 348l72 0c0 0 1 0 1 0l0-182c0 0-1-1-1-1l-72 0c0 0-1 1-1 1l0 182c0 0 1 0 1 0z m0-109l145 0c1 0 1-1 1-1l0-72c0 0 0-1-1-1l-145 0c0 0-1 1-1 1l0 72c0 0 1 1 1 1z"/>
<glyph glyph-name="arrow-down" unicode="&#57348;" d="M256 416c9 0 18-3 25-11l221-242c14-16 14-41 0-56-14-15-37-15-51 0l-195 214-195-214c-14-15-37-15-51 0-14 15-14 40 0 56l221 242c7 8 16 11 25 11z"/>
<glyph glyph-name="arrow-down-copy-12" unicode="&#57349;" d="M256 96c-9 0-18 4-25 12l-221 241c-14 15-14 40 0 55 14 15 37 15 51 0l195-213 195 213c14 15 36 15 50 0 14-15 14-40 0-55l-220-241c-7-8-16-12-25-12z"/>
<glyph glyph-name="arrow-left" unicode="&#57357;" d="M94 256c0 9 4 18 12 25l244 220c15 15 40 15 56 0 15-14 15-36 0-50l-216-195 216-195c15-14 15-37 0-51-16-14-41-14-56 0l-244 221c-8 7-12 16-12 25z"/>
<glyph glyph-name="arrow-right" unicode="&#57356;" d="M418 256c0 9-4 18-12 25l-244 220c-15 15-40 15-56 0-15-14-15-36 0-50l216-195-216-195c-15-14-15-37 0-51 16-14 41-14 56 0l244 221c8 7 12 16 12 25z"/>
<glyph glyph-name="attach" unicode="&#57358;" d="M381 297c0 0 20 14 5 28-16 14-31-4-31-4l-159-143c0 0-37-43-65-17-28 26 19 59 19 59l208 188c0 0 48 48 94 7 45-42-8-85-8-85l-234-211c0 0-75-78-144-16-69 63 18 129 18 129l177 161c0 0 20 15 5 28-14 14-31-4-31-4l-203-184c0 0-77-76 9-154 85-77 170-8 170-8l279 253c0 0 56 55-11 116-66 60-128 10-128 10l-241-218c0 0-61-45-5-96 56-50 105 6 105 6z"/>
<glyph glyph-name="bulb" unicode="&#57387;" d="M256 410c-74 0-128-56-137-115-5-40 8-79 35-108 23-25 36-58 36-93l0-54c0-22 18-40 40-40l53 0c22 0 40 18 40 40l0 54c0 36 12 68 35 91 24 25 37 58 37 91 0 74-63 134-139 134z m47-370c0-11-9-19-19-19l-53 0c-10 0-19 8-19 19l0 24 91 0 0-24z m40 160c-27-27-41-65-41-106l0-9-91 0 0 9c0 39-16 77-42 107-24 25-34 57-29 91 7 50 54 97 116 97 65 0 118-51 118-113 0-28-11-55-31-76z m58 205l43 44 15-15-43-43z m-288-1l-46 47-16-16 46-46z m123 108l20 0 0-61-20 0z m-226-225l62 0 0-21-62 0z m430 0l62 0 0-21-62 0z"/>
<glyph glyph-name="cal-1" unicode="&#57362;" d="M448 0l-384 0c-31 0-64 34-64 64l0 352c0 27 5 32 32 32l32 0 0-64 128 0 0 64 128 0 0-64 128 0 0 64 32 0c27 0 32-5 32-32l0-352c0-28-37-64-64-64z m0 320l-384 0 0-256 384 0z m-64 96c-11 0-32 21-32 32l0 32c0 11 21 32 32 32 11 0 32-21 32-32l0-32c0-11-21-32-32-32z m-256 0c-11 0-32 21-32 32l0 32c0 11 21 32 32 32 11 0 32-21 32-32l0-32c0-11-21-32-32-32z"/>
<glyph glyph-name="cal-2" unicode="&#57363;" d="M495 410c0 11-24 34-35 34l-34 0 0-34c0-33-13-36-46-36-33 0-56 3-56 36l0 34-136 0c0 0 3-11 1-28 0-40-25-44-57-42-33 1-46 3-46 36l0 34-34 0c-11 0-35-23-35-34l0-103 478 0z m-478-137l0-244c0-16 13-29 29-29l420 0c16 0 29 13 29 29l0 244z m103 239l34 0c0 0 1 0 1-1 0 0-1-1-1-1l0-102c0 0 1 0 1-1 0 0-1-1-1-1l-34 0c0 0 0 1 0 1l0 105c0 0 0 0 0 0z m238 0l34 0c1 0 1 0 1-1 0 0 0-1-1-1l0-102c1 0 1 0 1-1 0 0 0-1-1-1l-34 0c0 0 0 1 0 1l0 105c0 0 0 0 0 0 0 0 0 0 0 0z"/>
<glyph glyph-name="calendar" unicode="&#57384;" d="M384 192l-64 0 0-64 64 0z m0 256l0 32-64 0 0-32-128 0 0 32-64 0 0-32-96 0 0-416 448 0 0 416z m64-384l-384 0 0 288 384 0z m-64 224l-64 0 0-64 64 0z m-96 0l-64 0 0-64 64 0z m-96 0l-64 0 0-64 64 0z m0-96l-64 0 0-64 64 0z m96 0l-64 0 0-64 64 0z"/>
<glyph glyph-name="user-group" unicode="&#57389;" d="M508 103c0 0-5-44-44-44l-263 0c-39 0-44 44-44 44 0 0-20 138 110 175-20 21-30 40-30 74 0 64 42 101 95 101 54 0 98-37 98-101 0-34-12-53-32-74 124-35 110-175 110-175z m-175 311c0 0-58 15-58-62 0-77 58-62 58-62 0 0 58-15 58 62 0 77-58 62-58 62z m-1-158c-154 0-131-153-131-153l263 0c0 0 23 153-132 153z m-156-11c-6-7-11-15-16-23-12 5-26 7-40 7-103 0-95-104-95-104l110 0c0-9-1-13 0-22l-110 0c-25 0-22 22-22 22 0 0-2 103 77 125-12 15-19 20-19 43 0 43 27 63 59 63 33 0 59-20 59-63 0-23-7-28-19-43 5-1 11-3 16-5z m-56 85c0 0-34 15-34-37 0-53 34-38 34-38 0 0 34-15 34 38 0 52-34 37-34 37z"/>
<glyph glyph-name="bell" unicode="&#57390;" d="M427 490c-81 46-185 18-232-61l-68-115-127-82 132-74c-23-40-9-91 32-114 40-23 92-9 116 31l132-75 9 148 68 115c47 79 19 181-62 227z m-246-417c-25 14-33 44-19 68l88-50c-14-24-45-32-69-18z m280 209l-77-128 1-100-324 182 95 61 68 115c38 64 121 86 186 49 65-37 88-116 51-179z"/>
<glyph glyph-name="search-2" unicode="&#57391;" d="M342 453c-78 79-205 79-283 0-79-78-79-205 0-283 69-70 177-77 256-23 1-8 5-15 11-21l114-114c16-16 43-16 60 0 16 17 16 44 0 60l-114 114c-6 6-13 10-21 11 54 79 47 187-23 256z m-36-247c-58-58-153-58-212 0-58 58-58 153 0 211 59 59 154 59 212 0 58-58 58-153 0-211z"/>
<glyph glyph-name="system" unicode="&#918272;" d="M444 85l-376 0c-15 0-68 12-68 27l0 24 222 0 0-17 68 0 0 17 222 0 0-24c0-15-53-27-68-27z m-376 342l376 0 0-273-376 0z m17-256l342 0 0 239-342 0z"/>
<glyph glyph-name="webintensive-2" unicode="&#57393;" d="M397 271c-79 0-144-64-144-143 0-16 8-38 12-52l-132 0c-18 0-38 20-38 38l0 227c0 18 1 19 19 19l379 0-19-113c-23 15-46 24-77 24z m-340-195l-19 0 0 38-38 379 133 0 0-57 303 0 0-38-379 0z m341 171c62 0 114-53 114-114 0-62-52-114-114-114-62 0-114 52-114 114 0 61 52 114 114 114z m0-190c44 0 76 32 76 76 0 43-31 74-75 74-44 0-77-31-77-74 0-44 32-76 76-76z m-19 114l38 0 0-19 19 0 0-38-19 0 0-19-38 0 0 19-19 0 0 38 19 0z"/>
<glyph glyph-name="ico-check-2" unicode="&#57394;" d="M431 458l-215-269-162 134-54-80 132-113 0-4 84-76 296 354z"/>
<glyph glyph-name="approval-queues" unicode="&#57388;" d="M477 381l-43-57c8-22 12-45 13-68 0-86-58-162-141-185-83-22-171 13-215 88-43 74-32 168 28 230 61 61 155 75 230 33l38 51c-98 59-225 44-307-36-82-81-100-206-43-306 56-100 174-149 285-120 111 29 188 130 188 245 0 44-11 87-33 125z m-11 90c-14 11-34 8-45-6l-166-221-78 95c-11 14-30 16-44 5-13-11-16-31-5-45l103-126c6-8 15-12 25-12l1 0c9 0 19 5 24 13l191 253c5 7 7 15 6 24-1 8-6 15-12 20z"/>
<glyph glyph-name="bell-outline" unicode="&#57386;" d="M511 99l-80 112 0 128c0 95-78 173-173 173-95 0-172-78-172-173l0-128-81-112c-6-8-7-18-2-27 4-8 13-14 23-14l170 0c0 0 0 0 0 0 0-34 28-62 62-62 34 0 62 28 62 62 0 0 0 0 0 0l171 0c9 0 18 6 22 14 5 9 4 19-2 27z m-435 10l56 79c3 4 5 10 5 15l0 136c0 67 54 121 121 121 67 0 121-54 121-121l0-136c0-5 2-11 5-15l57-79z"/>
<glyph glyph-name="camera" unicode="&#57395;" d="M256 307c-42 0-77-34-77-77 0-42 35-76 77-76 42 0 77 34 77 76 0 43-35 77-77 77z m205 77l-62 0c-8 0-17 6-20 14l-16 48c-2 8-12 14-20 14l-174 0c-8 0-18-6-20-14l-16-48c-3-8-12-14-20-14l-62 0c-28 0-51-23-51-51l0-230c0-28 23-51 51-51l410 0c28 0 51 23 51 51l0 230c0 28-23 51-51 51z m-205-281c-71 0-128 57-128 127 0 71 57 128 128 128 71 0 128-57 128-128 0-70-57-127-128-127z m187 194c-10 0-18 8-18 18 0 10 8 18 18 18 10 0 18-8 18-18 0-10-8-18-18-18z"/>
<glyph glyph-name="list" unicode="&#57396;" d="M116 398l394 0c1 0 2-1 2-2l0-53c0-1-1-2-2-2l-394 0c-1 0-2 1-2 2l0 53c0 1 1 2 2 2z m0-114l394 0c1 0 2-1 2-2l0-52c0-1-1-2-2-2l-394 0c-1 0-2 1-2 2l0 52c0 1 1 2 2 2z m0-113l394 0c1 0 2-1 2-2l0-53c0-1-1-2-2-2l-394 0c-1 0-2 1-2 2l0 53c0 1 1 2 2 2z m-116 227l57 0 0-57-57 0z m0-114l57 0 0-56-57 0z m0-113l57 0 0-57-57 0z"/>
<glyph glyph-name="close-copy" unicode="&#57369;" d="M511 472l-39 40-216-216-216 216-39-40 215-216-215-217 39-39 216 216 216-216 39 40-216 216z"/>
<glyph glyph-name="sidebar" unicode="&#57397;" d="M77 511c-20-2-40-12-54-27-11-12-17-25-21-43-1-4-1-15-1-181 0-127 0-179 0-183 3-29 21-55 47-68 6-3 10-4 17-6 11-3-1-3 191-3 192 0 180 0 191 3 7 2 11 3 17 6 25 13 42 36 46 64 1 6 1 360 0 366-1 10-5 20-10 29-13 24-38 40-65 43-6 1-353 1-358 0z m360-29c12-3 21-7 29-15 8-8 13-17 15-28l1-4 1-176c0-131 0-177-1-181-3-24-21-43-45-48-4-1-10-1-181-1-171 0-177 0-181 1-11 2-21 7-29 15-8 8-13 18-15 29-1 4-1 10-1 182 0 172 0 178 1 182 2 11 7 21 15 29 9 8 19 14 30 16 2 0 4 0 5 0 0 0 80 0 177 0 164 0 176 0 179-1z m-153-226l0-199 61 0c60 0 61 0 65 1 22 6 38 22 43 44 1 4 1 10 1 154 0 144 0 150-1 154-5 22-21 38-43 44-4 1-5 1-65 1l-61 0z"/>
<glyph glyph-name="side-bar-1" unicode="&#57345;" d="M50 512c-24-4-44-21-49-45-1-4-1-11-1-211 0-200 0-207 1-211 5-22 22-39 44-44 4-1 11-1 211-1 200 0 207 0 211 1 22 5 39 22 44 44 1 4 1 11 1 211 0 200 0 207-1 211-5 22-21 38-44 44l-4 1-205 0c-114 0-207 0-208 0z m388-29c12-3 21-8 29-16 8-8 12-17 15-29 1-3 1-13 1-150 1-141 0-148 0-148-4 2-7 2-17 2l-11 0 0 131c0 142 0 134-3 143-5 17-19 31-36 36-9 3-8 3-72 3l-59 0 0-313-125 0c-132 0-126 0-131-2-1 0-1 7 0 148 0 137 0 147 0 150 3 12 8 21 16 29 10 9 20 14 34 16 1 0 81 0 179 0 165 0 177 0 180 0z m38-426c0 0-1-2-2-4-4-5-10-11-15-14-7-5-14-8-22-10-5-1-357-1-362 0-8 2-15 5-22 10-5 3-12 9-15 14-1 2-2 4-2 4 0 0 99 0 220 0 121 0 220 0 220 0z"/>
<glyph glyph-name="vertical-dots" unicode="&#57398;" d="M256 512c31 0 57-25 57-57 0-31-26-57-57-57-31 0-57 26-57 57 0 32 26 57 57 57z m0-199c31 0 57-26 57-57 0-31-26-57-57-57-31 0-57 26-57 57 0 31 26 57 57 57z m0-199c31 0 57-26 57-57 0-32-26-57-57-57-31 0-57 25-57 57 0 31 26 57 57 57z"/>
<glyph glyph-name="alert" unicode="&#57399;" d="M248 499c-7-1-13-2-17-4-18-6-34-17-44-34-4-5-175-315-178-322-3-5-5-13-7-20-2-8-2-27 0-34 7-37 32-63 67-71l6-1 362 0 6 1c3 1 8 2 11 3 29 10 50 36 56 68 1 6 2 20 1 27-2 13-5 24-13 38-3 5-43 76-88 159-46 83-85 152-86 155-13 17-31 29-52 34-5 1-20 2-24 1z m20-138c24-3 43-12 55-26 8-10 11-21 11-35 0-13-3-23-10-35-5-8-13-14-35-30-6-4-13-11-15-15-3-5-4-8-4-14 0-4 0-6 1-8 1-2 3-5 4-6 1-1 2-2 1-2 0 0-9-3-20-6-16-5-21-6-22-6-3 2-9 13-11 20-1 4-1 6-1 14 0 10 0 13 4 21 5 9 13 19 23 25 15 9 24 17 27 24 2 4 2 5 2 9 0 5-1 9-5 13-4 5-10 7-20 8-18 2-35-5-49-19l-4-4-15 17c-8 9-15 17-16 17 0 1 0 2 4 6 17 18 38 28 63 32 7 1 25 1 32 0z m-8-205c11-3 21-13 24-24 1-4 0-13-1-17-3-7-9-14-15-17-4-3-6-3-11-4-10-1-20 2-27 10-6 6-9 13-9 21 0 9 3 16 10 22 7 7 13 10 21 10 3 0 6-1 8-1z"/>
<glyph glyph-name="check-circle" unicode="&#57400;" d="M239 511c-3 0-9-1-15-1-100-12-187-86-214-184-7-25-9-43-9-70 0-42 8-79 27-116 36-69 103-120 179-135 23-4 59-6 80-3 58 9 106 31 147 71 42 42 67 91 76 152 3 21 1 57-3 80-15 76-65 143-135 179-26 13-51 21-81 25-11 2-45 3-52 2z m114-138c14-4 23-22 19-36-2-6-118-183-124-190-8-8-22-11-33-6-7 4-84 76-88 82-9 20 4 42 26 42 6 0 9-1 13-3 3-2 16-13 30-26 14-13 25-23 26-23 0 0 23 34 50 76 32 48 52 77 54 79 7 5 18 7 27 5z"/>
<glyph glyph-name="info-circle" unicode="&#57385;" d="M241 512c-12-1-29-3-41-6-92-21-166-91-191-183-8-30-11-64-7-95 7-68 41-129 94-172 23-18 50-33 76-42 21-7 39-11 62-13 10-1 34-1 44 0 27 2 52 9 75 18 45 19 84 50 112 89 24 34 39 72 45 114 1 12 2 19 2 34 0 16-1 22-2 35-9 63-41 120-90 161-50 42-113 63-179 60z m23-124c5-2 7-3 11-7 7-7 9-17 6-27-1-4-3-7-6-10-6-5-11-8-19-8-5 0-8 1-12 3-3 1-4 2-7 5-3 3-5 6-6 10-3 10-1 20 6 27 6 6 12 8 20 8 4 0 5 0 7-1z m13-175l0-85-42 0 0 171 42 0z"/>
<glyph glyph-name="repeat3" unicode="&#57401;" d="M332 493c-6-2-9-5-66-65l-51-53 12-12c6-6 31-32 55-57 25-26 45-46 47-47 6-3 17-3 22-1 11 4 20 19 18 31-1 9-4 13-25 36l-19 20 32 0c25 0 35 0 41-2 23-6 43-26 52-54 5-15 6-38 3-53-8-34-35-61-66-67-5-2-13-3-17-3-28 0-39-38-16-54 7-4 14-5 29-4 47 4 90 34 112 78 25 50 22 111-9 159-15 23-37 42-59 51-17 7-26 8-65 9l-36 1 20 21c16 17 20 22 22 28 6 18-6 37-24 38-4 1-10 0-12 0z m-204-89c-79-8-137-85-127-169 7-54 40-101 83-119 18-7 27-8 66-9l36-1-20-21c-16-17-20-22-22-28-4-13 1-27 12-35 7-5 21-5 28-1 3 2 29 29 58 60l54 56-11 12c-6 6-31 32-55 57-27 28-45 46-48 47-5 3-17 3-22 1-11-4-19-19-18-31 2-10 5-14 25-36l20-21-32 0c-25 0-35 1-41 3-24 6-43 26-52 54-5 15-6 38-3 53 9 39 44 69 82 69 27 1 39 32 21 51-8 8-15 10-34 8z"/>
<glyph glyph-name="expand-alt" unicode="&#57402;" d="M28 512l171 0c12 0 29-16 29-28 0-13-17-29-29-29l-142 0 0-398 398 0 0 85c0 12 16 29 29 29 12 0 28-16 28-28l0-115c0-12-16-28-28-28l-456 0c-12 0-28 16-28 28l0 462c0 12 16 22 28 22z m456-313l-200 0c-12 0-28 16-28 29l0 256c0 12 16 28 28 28l200 0c12 0 28-16 28-28l0-249c0-12-16-36-28-36z m-29 256l-142 0 0-199 142 0 0 199z m-348-370l-22 22 93 92 21-21z m-22 0l0 29 114 0 0-29z m29 0l-29 0 0 114 29 0 0-114z"/>
<glyph glyph-name="icon-message" unicode="&#57375;" d="M193 239l-181-153c6-7 15-10 25-10l438 0c10 0 18 3 25 10l-181 153-63-55z m282 197l-438 0c-10 0-19-3-25-10l244-206 244 206c-6 7-15 10-25 10z m-475-331l177 148-177 152z m512 0l0 300-177-152z"/>
<glyph glyph-name="plus-new" unicode="&#57403;" d="M186 419l0-93-186 0 0-140 186 0 0-186 140 0 0 186 186 0 0 140-186 0 0 186-140 0z"/>
<glyph glyph-name="arrow-new" unicode="&#57404;" d="M199 469l0-26 103 0c87 0 104 0 109-1 22-5 40-23 45-45 2-10 2-245 0-254-5-22-23-40-45-45-5-1-22-2-109-2l-103 0 0-51 107 0c119 1 112 0 130 7 16 6 28 14 41 26 15 16 26 36 30 58 2 10 2 257 0 268-2 8-6 22-10 30-13 24-35 44-62 54-18 6-11 6-129 6l-107 1z m-150-133l-49-48 0-27 104-104 38 38-46 47 225 0 0 57-115 0-114 0 23 23 23 23-20 20-20 20z"/>
<glyph glyph-name="user-alt" unicode="&#57405;" d="M240 511c-49-5-87-36-101-82-10-28-10-62-2-86 5-14 12-27 26-43 5-5 9-10 9-10 0 0-5-2-11-4-6-2-16-6-22-8-38-19-66-46-85-85-12-25-19-50-23-83-1-12-1-51 1-60 3-24 17-41 37-47l6-3 180 0c156 0 182 0 187 1 17 3 30 15 36 34 3 12 5 52 2 76-5 47-21 88-45 118-12 14-29 29-45 39-10 6-28 14-39 18-6 2-11 4-11 4 0 0 3 4 7 9 18 20 25 33 30 51 5 21 4 52-3 75-11 38-37 67-73 79-19 7-41 9-61 7z m46-50c10-2 16-6 24-13 5-6 7-9 10-15 3-4 5-11 6-14 7-25 6-58-2-81-7-19-20-32-38-37-4-1-8-1-15-1-11 0-19 0-31 0-11 0-17 1-25 5-20 10-31 31-33 64-2 24 1 47 9 64 3 6 5 9 11 15 8 7 14 11 24 13 5 2 9 2 30 2 21 0 25 0 30-2z m6-213c36-5 62-17 85-36 27-24 46-62 52-108 2-10 3-41 2-49l-1-5-348 0-1 5c-1 8 0 39 2 49 4 31 14 59 28 80 25 38 65 60 118 65 11 2 53 1 63-1z"/>
<glyph glyph-name="user-group-alt" unicode="&#57406;" d="M148 439c-15-3-31-10-42-18-44-33-50-94-12-133 5-6 11-11 17-15 2-1 1-1-6-3-45-17-80-55-95-107-6-23-8-41-9-69l0-23 328 0 0 14c0 61-15 110-45 144-16 18-38 33-60 41-4 1-6 2-6 3 0 0 4 2 7 5 16 12 28 29 33 48 3 10 3 28 2 39-4 18-13 35-28 49-12 11-26 19-44 23-10 3-30 4-40 2z m25-34c14-2 25-8 35-17 10-10 14-20 16-33 4-30-20-59-52-62-20-2-37 4-51 18-17 17-20 40-10 62 3 7 5 9 11 15 8 7 14 11 23 14 10 4 18 4 28 3z m16-162c18-3 33-9 46-18 9-5 23-20 29-30 15-21 25-52 27-83l1-6-254 0 0 7c3 31 13 61 27 82 19 29 45 44 83 49 8 1 33 0 41-1z m172 157c-33-5-59-28-69-59-2-7-2-8-2-22 0-13 0-14 2-21 4-13 10-24 20-33 15-16 34-25 57-27 3 0 6-1 6-1 0-1 1-1 3-1 2 0 7 0 11-1 38-5 66-29 79-67 2-7 5-19 6-24l0-3-51 0-51-1 0-34 140 0-1 18c0 10-1 21-1 26-4 27-14 52-29 71-10 13-28 28-42 35-3 1-6 3-6 3 0 0 2 3 5 6 10 10 17 22 20 37 3 10 3 26 0 36-11 42-53 69-97 62z m27-36c9-2 15-5 22-13 5-4 7-8 9-11 9-19 5-38-9-53-11-10-22-15-38-14-13 1-24 5-33 14-9 10-13 20-13 32 0 21 15 41 36 46 7 1 18 1 26-1z"/>
<glyph glyph-name="tick" unicode="&#57407;" d="M231 511c-78-8-149-52-191-118-14-23-27-55-33-82-8-35-8-73 0-109 11-55 44-108 89-144 66-54 157-71 238-45 95 31 163 113 176 214 1 13 1 46 0 59-3 22-9 47-17 65-5 12-12 27-12 27-1 0-16-8-29-16l-8-4 6-16c14-35 18-54 18-85 0-72-35-138-96-178-38-25-83-37-129-34-93 6-170 70-193 161-8 32-8 69 1 102 7 29 20 56 39 80 8 10 27 29 37 37 64 49 149 57 222 22 12-6 13-6 14-4 3 3 21 35 20 35-1 1-15 8-23 12-20 9-44 16-67 19-13 2-49 3-62 2z m209-43c-2 0-5-2-7-3-2-1-34-43-91-116-48-63-87-114-88-114 0 0-19 23-42 52-31 38-43 52-46 54-10 5-21 4-28-4-8-8-10-18-5-27 3-5 104-130 108-133 7-6 18-6 26-1 3 2 23 26 101 129 54 70 98 128 99 130 5 9 3 19-4 27-7 7-15 9-23 6z"/>
<glyph glyph-name="tick-1" unicode="&#57408;" d="M237 511c-24-2-37-5-53-10-88-25-154-95-176-184-5-23-6-33-6-60 0-28 1-39 7-65 18-70 68-131 134-164 50-25 109-33 164-22 90 19 163 84 191 170 10 29 13 51 13 81 0 26-3 46-10 72-3 11-13 36-14 36 0 0-8-8-17-17l-15-16 3-11c7-22 10-41 10-64 0-83-47-157-121-192-104-50-230-6-281 98-15 31-21 59-21 93 0 18 1 31 5 48 6 30 20 59 40 84 8 10 27 29 37 37 27 20 60 35 92 41 40 6 85 1 121-15l9-4 5 9c2 5 6 13 9 19l5 11-8 4c-19 8-44 16-67 19-10 2-48 3-56 2z m203-43c-2 0-5-2-7-3-2-1-34-43-91-116-48-63-87-114-88-114 0 0-19 23-42 52-31 38-43 52-46 54-10 5-21 4-28-4-8-8-10-18-5-27 3-5 104-130 108-133 7-6 18-6 26-1 3 2 23 26 101 129 54 70 98 128 99 130 5 9 3 19-4 27-7 7-15 9-23 6z"/>
</font>
</defs>
</svg>
